<?xml version="1.0" encoding="iso-8859-1"?>
<!-- Generator: Adobe Illustrator 19.0.0, SVG Export Plug-In . SVG Version: 6.00 Build 0)  -->
<svg version="1.1" id="Capa_1" xmlns="http://www.w3.org/2000/svg" xmlns:xlink="http://www.w3.org/1999/xlink" x="0px" y="0px"
	 viewBox="0 0 512 512" style="enable-background:new 0 0 512 512;" xml:space="preserve">
<path style="fill:#F9F9F9;" d="M512,15v482c0,8.28-6.72,15-15,15H15c-8.28,0-15-6.72-15-15V15C0,9.79,2.66,5.19,6.71,2.5
	C9.08,0.92,11.93,0,15,0h482C505.28,0,512,6.72,512,15z"/>
<path style="fill:#DFE4EA;" d="M497,0H256v512h241c8.28,0,15-6.72,15-15V15C512,6.72,505.28,0,497,0z"/>
<path style="fill:#7FECA0;" d="M56.616,0H15c-3.07,0-5.92,0.92-8.29,2.5C2.66,5.19,0,9.79,0,15v482c0,8.28,6.72,15,15,15h272.745
	L56.616,0z"/>
<path style="fill:#72A3FC;" d="M460.99,127.59c-1.16,26.25-5.84,50.81-13.96,73.41c-17.877,49.829-51.765,87.781-93.74,111.11
	c-4.539,2.52-10.04,2.521-14.58,0c-41.951-23.315-75.854-61.255-93.74-111.11c-8.12-22.6-12.8-47.16-13.96-73.41
	c-0.34-7.89,5.48-14.69,13.33-15.57c57.79-6.43,89.36-47.62,89.67-48.03C336.84,60.22,341.28,58,346,58s9.16,2.22,11.99,5.99
	c0.29,0.37,32.4,41.66,89.67,48.03C455.51,112.9,461.33,119.7,460.99,127.59z"/>
<path style="fill:#2892FC;" d="M447.66,112.02c-57.27-6.37-89.38-47.66-89.67-48.03C355.16,60.22,350.72,58,346,58
	s-9.16,2.22-11.99,5.99c-0.289,0.381-27.649,36.067-78.01,46.206v116.256c19.182,37.431,48.222,66.49,82.71,85.658
	c4.54,2.521,10.041,2.52,14.58,0c41.975-23.329,75.863-61.281,93.74-111.11c8.12-22.6,12.8-47.16,13.96-73.41
	C461.33,119.7,455.51,112.9,447.66,112.02z"/>
<path style="fill:#FD6B82;" d="M460.99,127.59c-1.16,26.25-5.84,50.81-13.96,73.41H244.97c-8.12-22.6-12.8-47.16-13.96-73.41
	c-0.34-7.89,5.48-14.69,13.33-15.57c57.79-6.43,89.36-47.62,89.67-48.03C336.84,60.22,341.28,58,346,58s9.16,2.22,11.99,5.99
	c0.29,0.37,32.4,41.66,89.67,48.03C455.51,112.9,461.33,119.7,460.99,127.59z"/>
<path style="fill:#FCB12B;" d="M346.9,512H234.05l-29.45-66l-49.09-110L6.71,2.5C9.08,0.92,11.93,0,15,0h103.44l149.92,336
	c1.892,4.24,48.977,109.747,49.09,110L346.9,512z"/>
<path style="fill:#FDA429;" d="M317.45,446c-0.448-1.003-46.184-103.488-49.09-110L256,308.299V512h90.9L317.45,446z"/>
<rect y="336" style="fill:#FAD557;" width="512" height="110"/>
<rect x="256" y="336" style="fill:#FCB12B;" width="256" height="110"/>
<path style="fill:#FC495C;" d="M460.99,127.59c0.34-7.89-5.48-14.69-13.33-15.57c-57.27-6.37-89.38-47.66-89.67-48.03
	C355.16,60.22,350.72,58,346,58s-9.16,2.22-11.99,5.99c-0.289,0.381-27.649,36.067-78.01,46.206V201h191.03
	C455.15,178.4,459.83,153.84,460.99,127.59z"/>
<g>
</g>
<g>
</g>
<g>
</g>
<g>
</g>
<g>
</g>
<g>
</g>
<g>
</g>
<g>
</g>
<g>
</g>
<g>
</g>
<g>
</g>
<g>
</g>
<g>
</g>
<g>
</g>
<g>
</g>
</svg>
